<?xml version="1.0" encoding="utf-8"?>
<!-- Generator: Adobe Illustrator 24.3.0, SVG Export Plug-In . SVG Version: 6.00 Build 0)  -->
<svg version="1.1" id="Ebene_1" xmlns="http://www.w3.org/2000/svg" xmlns:xlink="http://www.w3.org/1999/xlink" x="0px" y="0px"
	 viewBox="0 0 420.8 136.55" style="enable-background:new 0 0 420.8 136.55;" xml:space="preserve">
<style type="text/css">
	.st0{clip-path:url(#SVGID_2_);}
</style>
<g>
	<defs>
		<rect id="SVGID_1_" x="14.42" y="22.91" width="391.95" height="104.72"/>
	</defs>
	<clipPath id="SVGID_2_">
		<use xlink:href="#SVGID_1_"  style="overflow:visible;"/>
	</clipPath>
	<path class="st0" d="M393.8,100.57c3.18,0,5.28,1.02,6.42,3.24c0.72,1.44,0.96,3.36,0.9,5.34h-17.04c0.24-1.38,0.78-3.66,2.28-5.46
		C387.98,101.71,390.56,100.57,393.8,100.57 M406.1,113.53c0.72-3.66,0.36-7.8-1.08-11.04c-1.8-4.02-6.06-6.3-10.86-6.3
		c-4.32,0-8.16,1.26-11.28,4.26c-3.6,3.42-5.16,8.4-5.16,14.1c0,3.48,0.96,6.24,2.46,8.34c2.04,3,6,4.74,10.2,4.74
		c8.22,0,12.6-3.48,14.82-10.2l-5.34-0.66c-1.44,4.44-4.08,6.54-9.06,6.54c-5.58,0-7.86-3.78-7.44-9.78H406.1z M360.86,100.57
		c3.18,0,5.28,1.02,6.42,3.24c0.72,1.44,0.96,3.36,0.9,5.34h-17.04c0.24-1.38,0.78-3.66,2.28-5.46
		C355.04,101.71,357.62,100.57,360.86,100.57 M373.16,113.53c0.72-3.66,0.36-7.8-1.08-11.04c-1.8-4.02-6.06-6.3-10.86-6.3
		c-4.32,0-8.16,1.26-11.28,4.26c-3.6,3.42-5.16,8.4-5.16,14.1c0,3.48,0.96,6.24,2.46,8.34c2.04,3,6,4.74,10.2,4.74
		c8.22,0,12.6-3.48,14.82-10.2l-5.34-0.66c-1.44,4.44-4.08,6.54-9.06,6.54c-5.58,0-7.86-3.78-7.44-9.78H373.16z M344.6,96.13
		c-4.62,0-9.36,1.5-11.28,6.36l0.96-5.58h-5.34l-5.34,30h5.34l2.46-13.92c1.56-8.94,6.3-11.76,11.58-11.76
		c0.54,0,1.14,0.06,1.56,0.12l1.08-5.16C345.14,96.13,344.72,96.13,344.6,96.13 M307.52,126.91h5.28l4.5-25.5h6.06l0.78-4.5h-6.06
		l0.84-4.92c0.36-1.92,1.14-2.58,3.24-2.58c0.78,0,1.98,0.18,3,0.48l0.9-4.68c-1.2-0.36-2.94-0.6-4.38-0.6
		c-5.1,0-7.08,2.1-7.92,6.72l-0.96,5.58h-4.26l-0.78,4.5h4.26L307.52,126.91z M293.12,96.13c-4.62,0-9.36,1.5-11.28,6.36l0.96-5.58
		h-5.34l-5.34,30h5.34l2.46-13.92c1.56-8.94,6.3-11.76,11.58-11.76c0.54,0,1.14,0.06,1.56,0.12l1.08-5.16
		C293.66,96.13,293.24,96.13,293.12,96.13 M251.96,123.37c-5.52,0-7.62-2.82-7.62-7.62c0-4.26,1.02-8.46,3.18-11.52
		c1.8-2.52,4.44-3.78,8.1-3.78c5.28,0,7.5,3,7.5,7.8c0,4.68-1.2,8.94-3.54,11.88C257.9,122.29,255.44,123.37,251.96,123.37
		 M251.66,127.63c10.26,0,17.1-7.86,17.1-18.3c0-7.56-4.86-13.14-12.9-13.14c-10.44,0-17.16,7.92-17.16,18.78
		C238.7,122.59,243.74,127.63,251.66,127.63 M222.38,126.91h5.28l4.5-25.5h6.06l0.78-4.5h-6.06l0.84-4.92
		c0.36-1.92,1.14-2.58,3.24-2.58c0.78,0,1.98,0.18,3,0.48l0.9-4.68c-1.2-0.36-2.94-0.6-4.38-0.6c-5.1,0-7.08,2.1-7.92,6.72
		l-0.96,5.58h-4.26l-0.78,4.5h4.26L222.38,126.91z"/>
	<path class="st0" d="M389.78,38.57c3.24,0,5.46,0.96,7.02,3.24c0.96,1.44,1.56,3.72,1.62,5.34h-17.16c0-1.5,0.36-3.54,1.44-5.34
		C383.9,39.83,386.42,38.57,389.78,38.57 M401.42,40.13c-2.46-3.9-6.96-5.94-11.7-5.94c-4.32,0-7.98,1.5-10.62,4.5
		c-2.52,2.82-3.78,6.72-3.78,11.16c0,4.68,1.14,8.58,3.66,11.4c2.58,3,6.18,4.38,10.8,4.38c7.62,0,12.42-3.6,13.74-10.62l-5.22-0.42
		c-0.72,4.56-3.48,6.72-8.58,6.72c-5.64,0-8.4-3.18-8.52-9.78h22.74C404.18,47.27,403.22,43.01,401.42,40.13 M371.84,34.25
		c-4.92,0.36-8.52,3.06-9.36,5.94v-5.28h-5.4v30h5.4V50.69c0-9.66,4.14-11.46,9.84-11.46c0.54,0,1.02,0,1.38,0.06l0.12-5.1
		C373.4,34.19,372.26,34.19,371.84,34.25 M336.8,38.57c3.24,0,5.46,0.96,7.02,3.24c0.96,1.44,1.56,3.72,1.62,5.34h-17.16
		c0-1.5,0.36-3.54,1.44-5.34C330.92,39.83,333.44,38.57,336.8,38.57 M348.44,40.13c-2.46-3.9-6.96-5.94-11.7-5.94
		c-4.32,0-7.98,1.5-10.62,4.5c-2.52,2.82-3.78,6.72-3.78,11.16c0,4.68,1.14,8.58,3.66,11.4c2.58,3,6.18,4.38,10.8,4.38
		c7.62,0,12.42-3.6,13.74-10.62l-5.22-0.42c-0.72,4.56-3.48,6.72-8.58,6.72c-5.64,0-8.4-3.18-8.52-9.78h22.74
		C351.2,47.27,350.24,43.01,348.44,40.13 M314.12,37.55c-2.16-2.28-4.98-3.36-8.94-3.36c-4.2,0-7.56,1.62-9.24,5.22v-16.5h-5.4v42
		h5.4V48.05c0-8.7,5.1-9.36,7.8-9.36c1.68,0,3.66,0.06,5.34,1.74c1.86,1.74,1.8,4.08,1.8,6.84v17.64h5.58V46.97
		C316.46,43.79,316.4,40.01,314.12,37.55 M255.26,61.37c-7.02,0-8.82-4.44-8.82-11.46c0-7.2,2.22-11.4,8.94-11.4
		c7.32,0,8.58,5.88,8.58,11.46C263.96,57.53,261.02,61.37,255.26,61.37 M263.78,22.91v15.9c-2.28-3.18-5.46-4.62-9.66-4.62
		c-8.1,0-13.62,6.24-13.62,15.72c0,9.78,5.82,15.72,13.8,15.72c4.02,0,7.26-1.68,9.48-5.1v4.38h5.4v-42H263.78z M228.38,53.57
		c0,4.32-2.64,7.74-9.18,7.74c-2.94,0-5.4-1.56-5.4-4.38c0-3.42,2.34-4.32,5.52-5.04l9.06-1.98V53.57z M237.08,60.47
		c-0.78,0.18-1.26,0.24-1.74,0.24c-1.74,0-1.74-0.72-1.74-2.28V44.09c0-6.54-3.84-9.9-11.4-9.9c-3.84,0-7.02,0.78-9.18,2.22
		c-2.34,1.56-3.6,4.2-3.72,7.8l5.28,0.72c0-4.56,2.1-6.48,7.32-6.48c2.64,0,4.62,0.78,5.46,1.98c0.9,1.26,1.02,2.76,1.02,5.46
		l-9.9,1.92c-4.74,0.9-10.2,2.7-10.2,9.18c0,5.88,5.04,8.64,10.08,8.64c5.1,0,8.4-1.74,10.08-5.16c0.3,3.12,2.1,4.68,5.4,4.68
		c1.2,0,2.22-0.06,3.36-0.24L237.08,60.47z M188.78,61.37c-6.96,0-9.18-4.38-9.18-11.46c0-7.08,2.28-11.46,9.18-11.46
		c6.78,0,9.12,4.38,9.12,11.46C197.9,56.99,195.56,61.37,188.78,61.37 M188.78,65.63c9,0,14.94-6.3,14.94-15.72
		c0-9.06-5.76-15.72-14.94-15.72c-9.3,0-15,6.6-15,15.72C173.78,59.69,179.42,65.63,188.78,65.63 M162.26,64.91h5.4v-42h-5.4V64.91z
		 M152.3,37.55c-2.16-2.28-4.98-3.36-8.94-3.36c-4.8,0-7.74,1.92-9.24,5.28v-4.56h-5.4v30h5.4V48.35c0-8.58,5.16-9.66,7.8-9.66
		c1.68,0,3.66,0.06,5.34,1.74c1.86,1.74,1.8,4.2,1.8,6.96v17.52h5.58V47.09C154.64,43.91,154.58,40.01,152.3,37.55 M91.4,64.91h5.88
		l3.9-15.48c0.48-1.98,1.08-5.04,1.62-7.86c0.6,3,1.38,6.72,1.68,7.86l4.02,15.48h5.82l10.02-30h-5.82l-4.8,16.02
		c-0.72,2.4-1.5,5.34-2.4,8.82c-0.66-3.06-1.5-6.84-1.98-8.82l-3.96-16.02h-5.04l-4.02,16.02c-0.36,1.44-1.38,5.88-2.04,8.82
		c-0.96-3.66-2.22-8.22-2.4-8.82L87.2,34.91h-5.82L91.4,64.91z M64.22,61.37c-6.96,0-9.18-4.38-9.18-11.46
		c0-7.08,2.28-11.46,9.18-11.46c6.78,0,9.12,4.38,9.12,11.46C73.34,56.99,71,61.37,64.22,61.37 M64.22,65.63
		c9,0,14.94-6.3,14.94-15.72c0-9.06-5.76-15.72-14.94-15.72c-9.3,0-15,6.6-15,15.72C49.22,59.69,54.86,65.63,64.22,65.63
		 M29.18,61.37c-7.02,0-8.82-4.44-8.82-11.46c0-7.2,2.22-11.4,8.94-11.4c7.32,0,8.58,5.88,8.58,11.46
		C37.88,57.53,34.94,61.37,29.18,61.37 M37.7,22.91v15.9c-2.28-3.18-5.46-4.62-9.66-4.62c-8.1,0-13.62,6.24-13.62,15.72
		c0,9.78,5.82,15.72,13.8,15.72c4.02,0,7.26-1.68,9.48-5.1v4.38h5.4v-42H37.7z"/>
</g>
</svg>
