<?xml version="1.0" encoding="utf-8"?>
<!-- Generator: Adobe Illustrator 24.3.0, SVG Export Plug-In . SVG Version: 6.00 Build 0)  -->
<svg version="1.1" id="Ebene_1" xmlns="http://www.w3.org/2000/svg" xmlns:xlink="http://www.w3.org/1999/xlink" x="0px" y="0px"
	 viewBox="0 0 345.86 182.84" style="enable-background:new 0 0 345.86 182.84;" xml:space="preserve">
<style type="text/css">
	.st0{clip-path:url(#SVGID_2_);}
</style>
<g>
	<defs>
		<rect id="SVGID_1_" y="6.76" width="334.83" height="166.72"/>
	</defs>
	<clipPath id="SVGID_2_">
		<use xlink:href="#SVGID_1_"  style="overflow:visible;"/>
	</clipPath>
	<path class="st0" d="M188.88,173.48c6,0,12.54-2.28,12.54-9.6c0-6.48-5.58-7.8-11.1-9.12c-3.3-0.78-6.12-1.44-6.12-4.02
		c0-2.88,3.24-4.44,6.54-4.44c4.44,0,7.02,2.28,7.08,6.48l5.04-1.02c-0.72-7.26-6.18-9.72-12.06-9.72c-5.94,0-11.64,3.06-11.64,9.12
		c0,5.4,4.02,6.96,8.58,8.22c3.84,1.08,8.58,1.56,8.58,4.8c0,3.18-2.46,5.04-7.38,5.04c-4.5,0-7.86-2.64-7.98-6.9l-4.86,0.72
		C176.28,170.24,182.16,173.48,188.88,173.48 M176.76,141.98c-4.62,0-9.36,1.5-11.28,6.36l0.96-5.58h-5.34l-5.34,30h5.34l2.46-13.92
		c1.56-8.94,6.3-11.76,11.58-11.76c0.54,0,1.14,0.06,1.56,0.12l1.08-5.16C177.3,141.98,176.88,141.98,176.76,141.98 M139.74,146.42
		c3.18,0,5.28,1.02,6.42,3.24c0.72,1.44,0.96,3.36,0.9,5.34h-17.04c0.24-1.38,0.78-3.66,2.28-5.46
		C133.92,147.56,136.5,146.42,139.74,146.42 M152.04,159.38c0.72-3.66,0.36-7.8-1.08-11.04c-1.8-4.02-6.06-6.3-10.86-6.3
		c-4.32,0-8.16,1.26-11.28,4.26c-3.6,3.42-5.16,8.4-5.16,14.1c0,3.48,0.96,6.24,2.46,8.34c2.04,3,6,4.74,10.2,4.74
		c8.22,0,12.6-3.48,14.82-10.2l-5.34-0.66c-1.44,4.44-4.08,6.54-9.06,6.54c-5.58,0-7.86-3.78-7.44-9.78H152.04z M109.5,172.76h5.34
		l5.34-30h-5.34L109.5,172.76z M115.8,137.12h5.34l1.14-6.36h-5.34L115.8,137.12z M109.38,141.98c-4.62,0-9.36,1.5-11.28,6.36
		l0.96-5.58h-5.34l-5.34,30h5.34l2.46-13.92c1.56-8.94,6.3-11.76,11.58-11.76c0.54,0,1.14,0.06,1.56,0.12l1.08-5.16
		C109.92,141.98,109.5,141.98,109.38,141.98 M88.26,141.98c-4.62,0-9.36,1.5-11.28,6.36l0.96-5.58H72.6l-5.34,30h5.34l2.46-13.92
		c1.56-8.94,6.3-11.76,11.58-11.76c0.54,0,1.14,0.06,1.56,0.12l1.08-5.16C88.8,141.98,88.38,141.98,88.26,141.98 M55.68,160.82
		c-0.72,4.56-3.9,8.34-9.84,8.34c-3.18,0-5.34-1.68-5.34-4.44c0-3.36,2.46-4.44,6.12-5.1l9.54-1.74L55.68,160.82z M61.2,168.56
		c-1.32,0-1.62-0.96-1.38-2.22l2.46-13.98c1.14-6.54-3.6-10.32-10.5-10.32c-4.32,0-6.42,0.6-8.82,2.04
		c-2.58,1.56-4.38,3.9-4.86,7.62l5.22,0.96c0.72-4.56,3.3-6.36,8.22-6.36c2.82,0,4.56,1.02,5.22,2.22c0.84,1.62,0.54,3,0.12,5.22
		l-10.92,1.74c-5.94,0.96-11.04,3.3-11.04,9.48c0,5.58,4.68,8.52,9.84,8.52c4.74,0,8.04-1.86,10.02-5.34c0,3,1.62,4.86,4.98,4.86
		c1.14,0,1.56-0.06,2.52-0.24l0.66-4.38C62.4,168.5,61.68,168.56,61.2,168.56 M21.96,166.22c-1.8,2.04-4.14,3.12-7.2,3.12
		c-4.98,0-7.26-2.46-7.26-7.86c0-4.32,1.14-8.34,2.94-11.1c1.68-2.58,4.32-4.08,7.86-4.08c5.22,0,7.26,3.06,7.26,8.22
		C25.56,159.14,24.42,163.46,21.96,166.22 M19.74,141.98c-4.02,0-7.56,1.68-9.78,4.86l2.82-16.08H7.44l-7.44,42h5.34l0.78-4.38
		c1.86,3.48,5.1,5.1,9.12,5.1c9.72,0,16.14-8.22,16.14-18.6C31.38,147.38,26.7,141.98,19.74,141.98"/>
	<path class="st0" d="M320.64,84.42c3.24,0,5.46,0.96,7.02,3.24c0.96,1.44,1.56,3.72,1.62,5.34h-17.16c0-1.5,0.36-3.54,1.44-5.34
		C314.76,85.68,317.28,84.42,320.64,84.42 M332.28,85.98c-2.46-3.9-6.96-5.94-11.7-5.94c-4.32,0-7.98,1.5-10.62,4.5
		c-2.52,2.82-3.78,6.72-3.78,11.16c0,4.68,1.14,8.58,3.66,11.4c2.58,3,6.18,4.38,10.8,4.38c7.62,0,12.42-3.6,13.74-10.62l-5.22-0.42
		c-0.72,4.56-3.48,6.72-8.58,6.72c-5.64,0-8.4-3.18-8.52-9.78h22.74C335.04,93.12,334.08,88.86,332.28,85.98 M289.92,80.04
		c-3.66,0-5.58,1.08-7.02,2.28c-1.38,1.2-2.28,2.46-2.88,4.08c-1.44-4.02-4.86-6.36-9.6-6.36c-3.48,0-5.64,1.14-7.02,2.28
		c-1.26,1.02-1.86,2.04-2.22,2.94v-4.5h-5.34v30h5.34V94.2c0-4.8,1.32-6.78,2.76-8.1c1.08-0.96,2.58-1.62,4.44-1.62
		c1.14,0,3.36,0.06,5.04,1.68c1.8,1.68,1.8,4.14,1.8,6.96v17.64h5.52V94.2c0-4.8,1.32-6.78,2.76-8.1c1.14-1.02,2.64-1.62,4.44-1.62
		c1.14,0,3.36,0.06,5.04,1.68c1.8,1.68,1.8,4.14,1.8,6.96v17.64h5.52V91.32C300.3,83.88,296.64,80.04,289.92,80.04 M234.78,107.22
		c-6.96,0-9.18-4.38-9.18-11.46c0-7.08,2.28-11.46,9.18-11.46c6.78,0,9.12,4.38,9.12,11.46
		C243.9,102.84,241.56,107.22,234.78,107.22 M234.78,111.48c9,0,14.94-6.3,14.94-15.72c0-9.06-5.76-15.72-14.94-15.72
		c-9.3,0-15,6.6-15,15.72C219.78,105.54,225.42,111.48,234.78,111.48 M202.8,111.48c6.96,0,12.18-3.84,13.26-9.9l-5.1-0.54
		c-1.14,4.32-3.54,6.12-8.16,6.12c-7.26,0-8.94-4.62-8.94-11.4c0-6.6,1.62-11.4,8.94-11.4c5.4,0,7.2,3.42,8.1,6.9l5.04-0.96
		c-1.2-5.7-5.52-10.26-13.14-10.26c-9.18,0-14.88,6.48-14.88,15.72C187.92,105.6,193.62,111.48,202.8,111.48 M184.5,80.1
		c-4.92,0.36-8.52,3.06-9.36,5.94v-5.28h-5.4v30h5.4V96.54c0-9.66,4.14-11.46,9.84-11.46c0.54,0,1.02,0,1.38,0.06l0.12-5.1
		C186.06,80.04,184.92,80.04,184.5,80.1 M149.46,84.42c3.24,0,5.46,0.96,7.02,3.24c0.96,1.44,1.56,3.72,1.62,5.34h-17.16
		c0-1.5,0.36-3.54,1.44-5.34C143.58,85.68,146.1,84.42,149.46,84.42 M161.1,85.98c-2.46-3.9-6.96-5.94-11.7-5.94
		c-4.32,0-7.98,1.5-10.62,4.5c-2.52,2.82-3.78,6.72-3.78,11.16c0,4.68,1.14,8.58,3.66,11.4c2.58,3,6.18,4.38,10.8,4.38
		c7.62,0,12.42-3.6,13.74-10.62l-5.22-0.42c-0.72,4.56-3.48,6.72-8.58,6.72c-5.64,0-8.4-3.18-8.52-9.78h22.74
		C163.86,93.12,162.9,88.86,161.1,85.98 M115.98,110.76h5.76l11.22-30h-5.64l-5.4,15.54c-0.96,2.76-2.04,6.18-3.06,9.48
		c-1.44-4.8-2.46-7.92-3-9.48l-5.34-15.54h-5.76L115.98,110.76z M87.84,107.22c-6.96,0-9.18-4.38-9.18-11.46
		c0-7.08,2.28-11.46,9.18-11.46c6.78,0,9.12,4.38,9.12,11.46C96.96,102.84,94.62,107.22,87.84,107.22 M87.84,111.48
		c9,0,14.94-6.3,14.94-15.72c0-9.06-5.76-15.72-14.94-15.72c-9.3,0-15,6.6-15,15.72C72.84,105.54,78.48,111.48,87.84,111.48"/>
	<path class="st0" d="M157.56,45.22c-6.96,0-9.18-4.38-9.18-11.46c0-7.08,2.28-11.46,9.18-11.46c6.78,0,9.12,4.38,9.12,11.46
		C166.68,40.84,164.34,45.22,157.56,45.22 M157.56,49.48c9,0,14.94-6.3,14.94-15.72c0-9.06-5.76-15.72-14.94-15.72
		c-9.3,0-15,6.6-15,15.72C142.56,43.54,148.2,49.48,157.56,49.48 M136.08,49.06c1.32,0,2.52-0.18,3.3-0.3l-0.12-4.86
		c-1.02,0.18-2.1,0.3-2.76,0.3c-2.22,0-3.12-0.36-3.12-2.34v-18.6h6.12v-4.5h-6.12v-8.34h-5.34v8.34h-4.32v4.5h4.32v18.78
		C128.04,46.9,130.5,49.06,136.08,49.06 M76.56,48.76h5.88l3.9-15.48c0.48-1.98,1.08-5.04,1.62-7.86c0.6,3,1.38,6.72,1.68,7.86
		l4.02,15.48h5.82l10.02-30h-5.82l-4.8,16.02c-0.72,2.4-1.5,5.34-2.4,8.82c-0.66-3.06-1.5-6.84-1.98-8.82l-3.96-16.02H85.5
		l-4.02,16.02c-0.36,1.44-1.38,5.88-2.04,8.82c-0.96-3.66-2.22-8.22-2.4-8.82l-4.68-16.02h-5.82L76.56,48.76z M49.38,45.22
		c-6.96,0-9.18-4.38-9.18-11.46c0-7.08,2.28-11.46,9.18-11.46c6.78,0,9.12,4.38,9.12,11.46C58.5,40.84,56.16,45.22,49.38,45.22
		 M49.38,49.48c9,0,14.94-6.3,14.94-15.72c0-9.06-5.76-15.72-14.94-15.72c-9.3,0-15,6.6-15,15.72
		C34.38,43.54,40.02,49.48,49.38,49.48 M26.22,21.4c-2.16-2.28-4.98-3.36-8.94-3.36c-4.2,0-7.56,1.62-9.24,5.22V6.76h-5.4v42h5.4
		V31.9c0-8.7,5.1-9.36,7.8-9.36c1.68,0,3.66,0.06,5.34,1.74c1.86,1.74,1.8,4.08,1.8,6.84v17.64h5.58V30.82
		C28.56,27.64,28.5,23.86,26.22,21.4"/>
</g>
</svg>
