<?xml version="1.0" encoding="utf-8"?>
<!-- Generator: Adobe Illustrator 24.3.0, SVG Export Plug-In . SVG Version: 6.00 Build 0)  -->
<svg version="1.1" id="Ebene_1" xmlns="http://www.w3.org/2000/svg" xmlns:xlink="http://www.w3.org/1999/xlink" x="0px" y="0px"
	 viewBox="0 0 420.8 368.71" style="enable-background:new 0 0 420.8 368.71;" xml:space="preserve">
<style type="text/css">
	.st0{fill:#010202;}
</style>
<g>
	<path class="st0" d="M413.66,356.41h6l1.14-6.36h-6L413.66,356.41z M405.8,356.71c1.02,0,2.1-0.12,3-0.3l0.72-4.74
		c-0.9,0.18-1.8,0.24-2.46,0.24c-2.04,0-3.24-0.66-2.94-2.52l3.24-18.48h6.06l0.78-4.5h-6.06l1.5-8.34h-5.28l-1.5,8.34h-4.26
		l-0.78,4.5h4.26l-3.18,18.12C398,354.01,400.76,356.71,405.8,356.71 M390.74,329.29c-1.68-2.28-4.2-3.6-7.98-3.6
		c-4.44,0-7.62,1.62-9.72,5.34l2.94-16.62h-5.34l-7.44,42h5.34l2.82-15.96c1.5-8.64,6.6-10.26,9.54-10.26
		c1.74,0,3.54,0.18,4.92,1.92c1.38,1.86,1.14,3.96,0.6,6.9l-3.06,17.4h5.52l3.12-17.82C392.6,335.29,392.6,331.75,390.74,329.29
		 M349.04,348.97c-1.68,1.8-3.9,2.88-6.72,2.88c-5.34,0-7.2-2.76-7.2-7.26c0-4.74,0.96-8.7,3.24-11.34c1.68-2.04,4.2-3.24,7.56-3.24
		c4.68,0,7.2,2.52,7.2,7.56C353.12,342.01,351.62,346.15,349.04,348.97 M355.16,326.41l-0.72,4.38c-1.74-3.12-5.16-5.1-9.24-5.1
		c-9.72,0-15.84,8.1-15.84,18.12c0,7.32,4.62,12.36,11.76,12.36c3.96,0,7.32-1.68,9.66-5.16l-0.9,5.1c-0.96,5.46-4.62,8.4-9.66,8.4
		c-4.32,0-7.2-1.62-7.32-6.42l-5.1,0.6c-0.06,7.02,5.46,10.02,11.88,10.02c9.3,0,14.16-4.92,15.6-12.84l5.22-29.46H355.16z
		 M315.2,356.41h5.34l5.34-30h-5.34L315.2,356.41z M321.5,320.77h5.34l1.14-6.36h-5.34L321.5,320.77z M315.08,325.63
		c-4.62,0-9.36,1.5-11.28,6.36l0.96-5.58h-5.34l-5.34,30h5.34l2.46-13.92c1.56-8.94,6.3-11.76,11.58-11.76
		c0.54,0,1.14,0.06,1.56,0.12l1.08-5.16C315.62,325.63,315.2,325.63,315.08,325.63"/>
	<path class="st0" d="M325.94,294.41h5.34l7.44-42h-5.34L325.94,294.41z M314.36,282.47c-0.72,4.56-3.9,8.34-9.84,8.34
		c-3.18,0-5.34-1.68-5.34-4.44c0-3.36,2.46-4.44,6.12-5.1l9.54-1.74L314.36,282.47z M319.88,290.21c-1.32,0-1.62-0.96-1.38-2.22
		l2.46-13.98c1.14-6.54-3.6-10.32-10.5-10.32c-4.32,0-6.42,0.6-8.82,2.04c-2.58,1.56-4.38,3.9-4.86,7.62l5.22,0.96
		c0.72-4.56,3.3-6.36,8.22-6.36c2.82,0,4.56,1.02,5.22,2.22c0.84,1.62,0.54,3,0.12,5.22l-10.92,1.74
		c-5.94,0.96-11.04,3.3-11.04,9.48c0,5.58,4.68,8.52,9.84,8.52c4.74,0,8.04-1.86,10.02-5.34c0,3,1.62,4.86,4.98,4.86
		c1.14,0,1.56-0.06,2.52-0.24l0.66-4.38C321.08,290.15,320.36,290.21,319.88,290.21 M285.02,294.71c1.02,0,2.1-0.12,3-0.3l0.72-4.74
		c-0.9,0.18-1.8,0.24-2.46,0.24c-2.04,0-3.24-0.66-2.94-2.52l3.24-18.48h6.06l0.78-4.5h-6.06l1.5-8.34h-5.28l-1.5,8.34h-4.26
		l-0.78,4.5h4.26l-3.18,18.12C277.22,292.01,279.98,294.71,285.02,294.71 M269.9,267.17c-1.8-2.34-4.44-3.48-8.04-3.48
		c-4.5,0-7.74,1.86-9.6,5.52l0.84-4.8h-5.28l-5.34,30h5.34l2.88-16.38c1.38-7.92,6.24-9.84,9.18-9.84c1.68,0,3.72,0.06,5.04,1.74
		c1.5,1.68,1.26,4.2,0.72,7.14l-3.06,17.34h5.52l3.12-17.64C271.82,273.47,271.82,269.51,269.9,267.17 M226.46,268.07
		c3.18,0,5.28,1.02,6.42,3.24c0.72,1.44,0.96,3.36,0.9,5.34h-17.04c0.24-1.38,0.78-3.66,2.28-5.46
		C220.64,269.21,223.22,268.07,226.46,268.07 M238.76,281.03c0.72-3.66,0.36-7.8-1.08-11.04c-1.8-4.02-6.06-6.3-10.86-6.3
		c-4.32,0-8.16,1.26-11.28,4.26c-3.6,3.42-5.16,8.4-5.16,14.1c0,3.48,0.96,6.24,2.46,8.34c2.04,3,6,4.74,10.2,4.74
		c8.22,0,12.6-3.48,14.82-10.2l-5.34-0.66c-1.44,4.44-4.08,6.54-9.06,6.54c-5.58,0-7.86-3.78-7.44-9.78H238.76z M196.4,263.69
		c-3.24,0-5.46,0.72-7.38,2.16c-1.56,1.2-2.58,2.52-3.36,4.2c-0.84-4.02-3.9-6.36-8.22-6.36c-3.48,0-5.28,0.78-6.96,2.04
		c-1.32,1.02-2.22,2.22-2.82,3.36l0.84-4.68h-5.28l-5.34,30h5.28l2.88-16.26c0.78-4.62,2.4-6.72,4.14-8.22
		c1.32-1.14,3.24-1.8,4.86-1.8c1.74,0,3.3,0.24,4.5,1.62c1.38,1.74,1.14,4.32,0.6,7.26l-3.06,17.4h5.46l2.94-16.62
		c0.84-4.8,2.34-6.72,3.96-8.04c1.32-1.08,3-1.62,4.74-1.62c1.14,0,3.3,0.12,4.68,1.62c1.5,1.74,1.26,4.08,0.72,7.02l-3.12,17.64
		h5.46l3.3-18.72C206.42,269.03,203.42,263.69,196.4,263.69 M146.3,282.47c-0.72,4.56-3.9,8.34-9.84,8.34
		c-3.18,0-5.34-1.68-5.34-4.44c0-3.36,2.46-4.44,6.12-5.1l9.54-1.74L146.3,282.47z M151.82,290.21c-1.32,0-1.62-0.96-1.38-2.22
		l2.46-13.98c1.14-6.54-3.6-10.32-10.5-10.32c-4.32,0-6.42,0.6-8.82,2.04c-2.58,1.56-4.38,3.9-4.86,7.62l5.22,0.96
		c0.72-4.56,3.3-6.36,8.22-6.36c2.82,0,4.56,1.02,5.22,2.22c0.84,1.62,0.54,3,0.12,5.22l-10.92,1.74
		c-5.94,0.96-11.04,3.3-11.04,9.48c0,5.58,4.68,8.52,9.84,8.52c4.74,0,8.04-1.86,10.02-5.34c0,3,1.62,4.86,4.98,4.86
		c1.14,0,1.56-0.06,2.52-0.24l0.66-4.38C153.02,290.15,152.3,290.21,151.82,290.21 M111.5,287.81c-1.74,1.92-4.02,3.06-7.02,3.06
		c-5.46,0-7.32-3.06-7.32-7.62c0-4.8,1.08-8.94,3.24-11.76c1.8-2.34,4.32-3.48,7.86-3.48c5.52,0,7.02,3.42,7.02,7.56
		C115.28,280.31,114.08,284.93,111.5,287.81 M119.48,252.41l-2.82,16.2c-1.74-3.12-5.28-4.92-9.36-4.92
		c-9.84,0-15.9,8.52-15.9,18.54c0,7.92,5.04,12.9,11.76,12.9c4.14,0,7.68-1.8,9.72-5.22l-0.78,4.5h5.34l7.38-42H119.48z
		 M84.86,267.17c-1.8-2.34-4.44-3.48-8.04-3.48c-4.5,0-7.74,1.86-9.6,5.52l0.84-4.8h-5.28l-5.34,30h5.34l2.88-16.38
		c1.38-7.92,6.24-9.84,9.18-9.84c1.68,0,3.72,0.06,5.04,1.74c1.5,1.68,1.26,4.2,0.72,7.14l-3.06,17.34h5.52l3.12-17.64
		C86.78,273.47,86.78,269.51,84.86,267.17 M49.4,264.41l-2.88,16.38c-1.5,8.52-6.6,9.84-9.3,9.84c-1.68,0-3.66-0.06-5.1-1.74
		c-1.38-1.62-1.14-3.9-0.6-6.84l3.12-17.64h-5.52L26,282.05c-0.6,3.36-0.6,7.08,1.38,9.6c1.74,2.28,4.68,3.48,7.92,3.48
		c4.8,0,7.5-1.74,9.6-5.28l-0.78,4.56h5.34l5.28-30H49.4z M8.06,294.41h5.28l4.5-25.5h6.06l0.78-4.5h-6.06l0.84-4.92
		c0.36-1.92,1.14-2.58,3.24-2.58c0.78,0,1.98,0.18,3,0.48l0.9-4.68c-1.2-0.36-2.94-0.6-4.38-0.6c-5.1,0-7.08,2.1-7.92,6.72
		l-0.96,5.58H9.08l-0.78,4.5h4.26L8.06,294.41z"/>
	<path class="st0" d="M199.52,221.07c0,4.32-2.64,7.74-9.18,7.74c-2.94,0-5.4-1.56-5.4-4.38c0-3.42,2.34-4.32,5.52-5.04l9.06-1.98
		V221.07z M208.22,227.97c-0.78,0.18-1.26,0.24-1.74,0.24c-1.74,0-1.74-0.72-1.74-2.28v-14.34c0-6.54-3.84-9.9-11.4-9.9
		c-3.84,0-7.02,0.78-9.18,2.22c-2.34,1.56-3.6,4.2-3.72,7.8l5.28,0.72c0-4.56,2.1-6.48,7.32-6.48c2.64,0,4.62,0.78,5.46,1.98
		c0.9,1.26,1.02,2.76,1.02,5.46l-9.9,1.92c-4.74,0.9-10.2,2.7-10.2,9.18c0,5.88,5.04,8.64,10.08,8.64c5.1,0,8.4-1.74,10.08-5.16
		c0.3,3.12,2.1,4.68,5.4,4.68c1.2,0,2.22-0.06,3.36-0.24L208.22,227.97z M158.84,232.71c1.32,0,2.52-0.18,3.3-0.3l-0.12-4.86
		c-1.02,0.18-2.1,0.3-2.76,0.3c-2.22,0-3.12-0.36-3.12-2.34v-18.6h6.12v-4.5h-6.12v-8.34h-5.34v8.34h-4.32v4.5h4.32v18.78
		C150.8,230.55,153.26,232.71,158.84,232.71 M135.8,202.41v16.86c0,8.7-5.04,9.36-7.74,9.36c-1.74,0-3.72-0.06-5.46-1.74
		c-1.8-1.74-1.74-4.08-1.74-6.84v-17.64h-5.58v17.94c0,3.18,0.06,6.96,2.4,9.42c2.16,2.28,4.98,3.36,8.88,3.36
		c4.26,0,7.62-1.8,9.24-5.22v4.5h5.4v-30H135.8z M94.64,228.99c-5.76,0-8.7-3.96-8.7-11.52c0-5.58,1.26-11.58,8.58-11.58
		c6.72,0,8.94,4.32,8.94,11.52C103.46,224.43,101.66,228.99,94.64,228.99 M95.78,201.63c-4.2,0-7.38,1.5-9.66,4.68v-15.9h-5.4v42
		h5.4v-4.38c2.22,3.42,5.46,5.1,9.48,5.1c7.98,0,13.8-5.94,13.8-15.72C109.4,207.93,103.88,201.63,95.78,201.63"/>
	<path class="st0" d="M395.24,144.07c3.18,0,5.28,1.02,6.42,3.24c0.72,1.44,0.96,3.36,0.9,5.34h-17.04
		c0.24-1.38,0.78-3.66,2.28-5.46C389.42,145.21,392,144.07,395.24,144.07 M407.54,157.03c0.72-3.66,0.36-7.8-1.08-11.04
		c-1.8-4.02-6.06-6.3-10.86-6.3c-4.32,0-8.16,1.26-11.28,4.26c-3.6,3.42-5.16,8.4-5.16,14.1c0,3.48,0.96,6.24,2.46,8.34
		c2.04,3,6,4.74,10.2,4.74c8.22,0,12.6-3.48,14.82-10.2l-5.34-0.66c-1.44,4.44-4.08,6.54-9.06,6.54c-5.58,0-7.86-3.78-7.44-9.78
		H407.54z M364.16,162.97c-1.68,1.8-3.9,2.88-6.72,2.88c-5.34,0-7.2-2.76-7.2-7.26c0-4.74,0.96-8.7,3.24-11.34
		c1.68-2.04,4.2-3.24,7.56-3.24c4.68,0,7.2,2.52,7.2,7.56C368.24,156.01,366.74,160.15,364.16,162.97 M370.28,140.41l-0.72,4.38
		c-1.74-3.12-5.16-5.1-9.24-5.1c-9.72,0-15.84,8.1-15.84,18.12c0,7.32,4.62,12.36,11.76,12.36c3.96,0,7.32-1.68,9.66-5.16l-0.9,5.1
		c-0.96,5.46-4.62,8.4-9.66,8.4c-4.32,0-7.2-1.62-7.32-6.42l-5.1,0.6c-0.06,7.02,5.46,10.02,11.88,10.02
		c9.3,0,14.16-4.92,15.6-12.84l5.22-29.46H370.28z M327.62,144.07c3.18,0,5.28,1.02,6.42,3.24c0.72,1.44,0.96,3.36,0.9,5.34H317.9
		c0.24-1.38,0.78-3.66,2.28-5.46C321.8,145.21,324.38,144.07,327.62,144.07 M339.92,157.03c0.72-3.66,0.36-7.8-1.08-11.04
		c-1.8-4.02-6.06-6.3-10.86-6.3c-4.32,0-8.16,1.26-11.28,4.26c-3.6,3.42-5.16,8.4-5.16,14.1c0,3.48,0.96,6.24,2.46,8.34
		c2.04,3,6,4.74,10.2,4.74c8.22,0,12.6-3.48,14.82-10.2l-5.34-0.66c-1.44,4.44-4.08,6.54-9.06,6.54c-5.58,0-7.86-3.78-7.44-9.78
		H339.92z M297.38,170.41h5.34l7.44-42h-5.34L297.38,170.41z M284.06,170.41h5.34l5.34-30h-5.34L284.06,170.41z M290.36,134.77h5.34
		l1.14-6.36h-5.34L290.36,134.77z M262.82,170.41h5.82l16.26-30h-5.88l-8.04,15.54c-1.62,3.18-3.3,6.72-4.5,9.48
		c-0.54-4.2-1.14-7.98-1.38-9.48l-2.52-15.54H257L262.82,170.41z M241.94,170.41h5.34l5.34-30h-5.34L241.94,170.41z M248.24,134.77
		h5.34l1.14-6.36h-5.34L248.24,134.77z M241.82,139.63c-4.62,0-9.36,1.5-11.28,6.36l0.96-5.58h-5.34l-5.34,30h5.34l2.46-13.92
		c1.56-8.94,6.3-11.76,11.58-11.76c0.54,0,1.14,0.06,1.56,0.12l1.08-5.16C242.36,139.63,241.94,139.63,241.82,139.63 M208.22,163.51
		c-1.68,2.22-4.14,3.3-7.44,3.3c-5.1,0-7.2-3.36-7.2-7.5c0-4.44,1.32-8.34,2.82-10.86c1.74-2.94,4.56-4.5,7.98-4.5
		c5.34,0,7.26,3.12,7.26,7.8C211.64,156.61,210.5,160.57,208.22,163.51 M205.76,139.69c-4.32,0-7.68,2.16-9.78,5.28l0.78-4.56h-5.34
		l-7.44,42h5.34l2.88-16.32c1.86,3.24,5.22,5.04,9.3,5.04c10.26,0,15.96-9.18,15.96-18.54
		C217.46,144.67,212.24,139.69,205.76,139.69"/>
	<path class="st0" d="M399.86,97.07c0,4.32-2.64,7.74-9.18,7.74c-2.94,0-5.4-1.56-5.4-4.38c0-3.42,2.34-4.32,5.52-5.04l9.06-1.98
		V97.07z M408.56,103.97c-0.78,0.18-1.26,0.24-1.74,0.24c-1.74,0-1.74-0.72-1.74-2.28V87.59c0-6.54-3.84-9.9-11.4-9.9
		c-3.84,0-7.02,0.78-9.18,2.22c-2.34,1.56-3.6,4.2-3.72,7.8l5.28,0.72c0-4.56,2.1-6.48,7.32-6.48c2.64,0,4.62,0.78,5.46,1.98
		c0.9,1.26,1.02,2.76,1.02,5.46l-9.9,1.92c-4.74,0.9-10.2,2.7-10.2,9.18c0,5.88,5.04,8.64,10.08,8.64c5.1,0,8.4-1.74,10.08-5.16
		c0.3,3.12,2.1,4.68,5.4,4.68c1.2,0,2.22-0.06,3.36-0.24L408.56,103.97z M347.6,82.07c3.24,0,5.46,0.96,7.02,3.24
		c0.96,1.44,1.56,3.72,1.62,5.34h-17.16c0-1.5,0.36-3.54,1.44-5.34C341.72,83.33,344.24,82.07,347.6,82.07 M359.24,83.63
		c-2.46-3.9-6.96-5.94-11.7-5.94c-4.32,0-7.98,1.5-10.62,4.5c-2.52,2.82-3.78,6.72-3.78,11.16c0,4.68,1.14,8.58,3.66,11.4
		c2.58,3,6.18,4.38,10.8,4.38c7.62,0,12.42-3.6,13.74-10.62l-5.22-0.42c-0.72,4.56-3.48,6.72-8.58,6.72c-5.64,0-8.4-3.18-8.52-9.78
		h22.74C362,90.77,361.04,86.51,359.24,83.63 M313.94,104.99c-5.76,0-8.7-3.96-8.7-11.52c0-5.58,1.26-11.58,8.58-11.58
		c6.72,0,8.94,4.32,8.94,11.52C322.76,100.43,320.96,104.99,313.94,104.99 M315.08,77.63c-4.2,0-7.38,1.5-9.66,4.68v-15.9h-5.4v42
		h5.4v-4.38c2.22,3.42,5.46,5.1,9.48,5.1c7.98,0,13.8-5.94,13.8-15.72C328.7,83.93,323.18,77.63,315.08,77.63 M277.88,108.71
		c1.32,0,2.52-0.18,3.3-0.3l-0.12-4.86c-1.02,0.18-2.1,0.3-2.76,0.3c-2.22,0-3.12-0.36-3.12-2.34v-18.6h6.12v-4.5h-6.12v-8.34h-5.34
		v8.34h-4.32v4.5h4.32v18.78C269.84,106.55,272.3,108.71,277.88,108.71 M247.64,104.87c-6.96,0-9.18-4.38-9.18-11.46
		c0-7.08,2.28-11.46,9.18-11.46c6.78,0,9.12,4.38,9.12,11.46C256.76,100.49,254.42,104.87,247.64,104.87 M247.64,109.13
		c9,0,14.94-6.3,14.94-15.72c0-9.06-5.76-15.72-14.94-15.72c-9.3,0-15,6.6-15,15.72C232.64,103.19,238.28,109.13,247.64,109.13
		 M224.48,81.05c-2.16-2.28-4.98-3.36-8.94-3.36c-4.8,0-7.74,1.92-9.24,5.28v-4.56h-5.4v30h5.4V91.85c0-8.58,5.16-9.66,7.8-9.66
		c1.68,0,3.66,0.06,5.34,1.74c1.86,1.74,1.8,4.2,1.8,6.96v17.52h5.58V90.59C226.82,87.41,226.76,83.51,224.48,81.05 M165.62,104.87
		c-7.02,0-8.82-4.44-8.82-11.46c0-7.2,2.22-11.4,8.94-11.4c7.32,0,8.58,5.88,8.58,11.46C174.32,101.03,171.38,104.87,165.62,104.87
		 M174.14,66.41v15.9c-2.28-3.18-5.46-4.62-9.66-4.62c-8.1,0-13.62,6.24-13.62,15.72c0,9.78,5.82,15.72,13.8,15.72
		c4.02,0,7.26-1.68,9.48-5.1v4.38h5.4v-42H174.14z M139.28,108.41h5.4v-42h-5.4V108.41z M125.96,78.41v16.86
		c0,8.7-5.04,9.36-7.74,9.36c-1.74,0-3.72-0.06-5.46-1.74c-1.8-1.74-1.74-4.08-1.74-6.84V78.41h-5.58v17.94
		c0,3.18,0.06,6.96,2.4,9.42c2.16,2.28,4.98,3.36,8.88,3.36c4.26,0,7.62-1.8,9.24-5.22v4.5h5.4v-30H125.96z M84.68,104.87
		c-6.96,0-9.18-4.38-9.18-11.46c0-7.08,2.28-11.46,9.18-11.46c6.78,0,9.12,4.38,9.12,11.46C93.8,100.49,91.46,104.87,84.68,104.87
		 M84.68,109.13c9,0,14.94-6.3,14.94-15.72c0-9.06-5.76-15.72-14.94-15.72c-9.3,0-15,6.6-15,15.72
		C69.68,103.19,75.32,109.13,84.68,109.13 M61.52,81.05c-2.16-2.28-4.98-3.36-8.94-3.36c-4.2,0-7.56,1.62-9.24,5.22v-16.5h-5.4v42
		h5.4V91.55c0-8.7,5.1-9.36,7.8-9.36c1.68,0,3.66,0.06,5.34,1.74c1.86,1.74,1.8,4.08,1.8,6.84v17.64h5.58V90.47
		C63.86,87.29,63.8,83.51,61.52,81.05 M19.52,109.13c6.06,0,12.36-2.1,12.36-9.42c0-7.02-6.18-8.04-12.18-9.3
		c-3.6-0.78-7.2-1.56-7.2-4.32c0-2.76,3.06-4.14,6-4.14c4.74,0,7.44,2.22,7.56,6.36l5.04-0.78c-0.66-7.32-6.18-9.84-12.54-9.84
		c-5.34,0-11.1,2.52-11.1,8.76c0,5.94,4.8,7.38,9.66,8.64c4.14,1.08,9.66,1.5,9.66,4.92c0,3.18-2.46,4.86-7.38,4.86
		c-4.68,0-7.74-2.58-7.68-6.78L6.8,98.57C6.74,106.01,12.8,109.13,19.52,109.13"/>
	<path class="st0" d="M328.93,16.41l-8.46,16.26c-1.26,2.4-2.16,4.32-3.96,7.92c-0.42-3-0.9-5.88-1.26-7.92l-2.82-16.26h-5.58
		l6.3,29.58c-2.94,5.22-4.32,7.74-6.54,7.74c-1.2,0-2.46-0.54-3.42-0.96l-1.02,5.04c1.32,0.48,3.24,0.9,4.68,0.9
		c4.26,0,6.54-3.06,9.72-8.88l18.18-33.42H328.93z M296.65,46.71c1.02,0,2.1-0.12,3-0.3l0.72-4.74c-0.9,0.18-1.8,0.24-2.46,0.24
		c-2.04,0-3.24-0.66-2.94-2.52l3.24-18.48h6.06l0.78-4.5h-6.06l1.5-8.34h-5.28l-1.5,8.34h-4.26l-0.78,4.5h4.26l-3.18,18.12
		C288.85,44.01,291.61,46.71,296.65,46.71 M273.49,46.41h5.34l5.34-30h-5.34L273.49,46.41z M279.79,10.77h5.34l1.14-6.36h-5.34
		L279.79,10.77z M260.18,46.41h5.34l7.44-42h-5.34L260.18,46.41z M246.86,46.41h5.34l5.34-30h-5.34L246.86,46.41z M253.16,10.77
		h5.34l1.14-6.36h-5.34L253.16,10.77z M234.08,39.87c-1.8,2.04-4.14,3.12-7.2,3.12c-4.98,0-7.26-2.46-7.26-7.86
		c0-4.32,1.14-8.34,2.94-11.1c1.68-2.58,4.32-4.08,7.86-4.08c5.22,0,7.26,3.06,7.26,8.22C237.68,32.79,236.54,37.11,234.08,39.87
		 M231.86,15.63c-4.02,0-7.56,1.68-9.78,4.86l2.82-16.08h-5.34l-7.44,42h5.34l0.78-4.38c1.86,3.48,5.1,5.1,9.12,5.1
		c9.72,0,16.14-8.22,16.14-18.6C243.5,21.03,238.82,15.63,231.86,15.63 M198.8,46.41h5.34l5.34-30h-5.34L198.8,46.41z M205.1,10.77
		h5.34l1.14-6.36h-5.34L205.1,10.77z M181.82,47.13c6,0,12.54-2.28,12.54-9.6c0-6.48-5.58-7.8-11.1-9.12
		c-3.3-0.78-6.12-1.44-6.12-4.02c0-2.88,3.24-4.44,6.54-4.44c4.44,0,7.02,2.28,7.08,6.48l5.04-1.02c-0.72-7.26-6.18-9.72-12.06-9.72
		c-5.94,0-11.64,3.06-11.64,9.12c0,5.4,4.02,6.96,8.58,8.22c3.84,1.08,8.58,1.56,8.58,4.8c0,3.18-2.46,5.04-7.38,5.04
		c-4.5,0-7.86-2.64-7.98-6.9l-4.86,0.72C169.22,43.89,175.1,47.13,181.82,47.13 M152.54,47.13c6,0,12.54-2.28,12.54-9.6
		c0-6.48-5.58-7.8-11.1-9.12c-3.3-0.78-6.12-1.44-6.12-4.02c0-2.88,3.24-4.44,6.54-4.44c4.44,0,7.02,2.28,7.08,6.48l5.04-1.02
		c-0.72-7.26-6.18-9.72-12.06-9.72c-5.94,0-11.64,3.06-11.64,9.12c0,5.4,4.02,6.96,8.58,8.22c3.84,1.08,8.58,1.56,8.58,4.8
		c0,3.18-2.46,5.04-7.38,5.04c-4.5,0-7.86-2.64-7.98-6.9l-4.86,0.72C139.94,43.89,145.82,47.13,152.54,47.13 M124.22,20.07
		c3.18,0,5.28,1.02,6.42,3.24c0.72,1.44,0.96,3.36,0.9,5.34H114.5c0.24-1.38,0.78-3.66,2.28-5.46
		C118.4,21.21,120.98,20.07,124.22,20.07 M136.52,33.03c0.72-3.66,0.36-7.8-1.08-11.04c-1.8-4.02-6.06-6.3-10.86-6.3
		c-4.32,0-8.16,1.26-11.28,4.26c-3.6,3.42-5.16,8.4-5.16,14.1c0,3.48,0.96,6.24,2.46,8.34c2.04,3,6,4.74,10.2,4.74
		c8.22,0,12.6-3.48,14.82-10.2l-5.34-0.66c-1.44,4.44-4.08,6.54-9.06,6.54c-5.58,0-7.86-3.78-7.44-9.78H136.52z M89.36,47.13
		c7.08,0,12.36-3.36,14.28-9.66l-5.16-0.78c-1.56,4.26-4.32,6.12-8.76,6.12c-5.4,0-7.2-3.24-7.2-7.86c0-4.8,0.96-8.76,2.7-11.46
		c1.68-2.58,3.9-3.48,7.26-3.48c4.5,0,6.6,2.94,7.32,7.08l5.04-1.2c-1.26-6.3-5.58-10.2-12.06-10.2c-11.04,0-16.2,8.46-16.2,18.48
		C76.58,42.09,81.8,47.13,89.36,47.13 M57.8,47.13c7.08,0,12.36-3.36,14.28-9.66l-5.16-0.78c-1.56,4.26-4.32,6.12-8.76,6.12
		c-5.4,0-7.2-3.24-7.2-7.86c0-4.8,0.96-8.76,2.7-11.46c1.68-2.58,3.9-3.48,7.26-3.48c4.5,0,6.6,2.94,7.32,7.08l5.04-1.2
		c-1.26-6.3-5.58-10.2-12.06-10.2c-11.04,0-16.2,8.46-16.2,18.48C45.02,42.09,50.24,47.13,57.8,47.13 M17.54,29.07l6.84-12.66
		c1.44-2.64,2.4-4.56,3.54-6.78h0.06c0.3,1.8,0.78,4.56,1.2,6.78l2.46,12.66H17.54z M35,46.41h5.46l-8.82-42h-5.7l-23.7,42h5.88
		l6.78-12.54h17.64L35,46.41z"/>
</g>
</svg>
