<?xml version="1.0" encoding="utf-8"?>
<!-- Generator: Adobe Illustrator 24.3.0, SVG Export Plug-In . SVG Version: 6.00 Build 0)  -->
<svg version="1.1" id="Ebene_1" xmlns="http://www.w3.org/2000/svg" xmlns:xlink="http://www.w3.org/1999/xlink" x="0px" y="0px"
	 viewBox="0 0 3081.39 3081.39" style="enable-background:new 0 0 3081.39 3081.39;" xml:space="preserve">
<style type="text/css">
	.st0{fill:#AE0F0A;}
	.st1{fill:#FFFFFF;}
</style>
<g>
	<g>
		<rect y="1484.54" class="st0" width="529.2" height="112.32"/>
		<rect x="2552.19" y="1484.54" class="st0" width="529.2" height="112.32"/>
		<rect x="529.2" y="1484.54" class="st1" width="2022.99" height="112.32"/>
	</g>
	<g>
		<rect y="1484.54" class="st0" width="529.2" height="112.32"/>
		<rect x="2552.19" y="1484.54" class="st0" width="529.2" height="112.32"/>
		<rect x="529.2" y="1484.54" class="st1" width="2022.99" height="112.32"/>
	</g>
</g>
<g>
	<g>
		<rect x="1484.54" class="st0" width="112.32" height="529.2"/>
		<rect x="1484.54" y="2552.19" class="st0" width="112.32" height="529.2"/>
		<rect x="1484.54" y="529.2" class="st1" width="112.32" height="2022.99"/>
	</g>
	<g>
		<rect x="1484.54" class="st0" width="112.32" height="529.2"/>
		<rect x="1484.54" y="2552.19" class="st0" width="112.32" height="529.2"/>
		<rect x="1484.54" y="529.2" class="st1" width="112.32" height="2022.99"/>
	</g>
</g>
<g>
	<g>
		
			<rect x="582.2" y="373.76" transform="matrix(0.7071 -0.7071 0.7071 0.7071 -264.4174 638.36)" class="st0" width="112.32" height="529.2"/>
		
			<rect x="2386.87" y="2178.43" transform="matrix(0.7071 -0.7071 0.7071 0.7071 -1011.9376 2443.0334)" class="st0" width="112.32" height="529.2"/>
		
			<rect x="1484.54" y="529.2" transform="matrix(0.7071 -0.7071 0.7071 0.7071 -638.1775 1540.6967)" class="st1" width="112.32" height="2022.99"/>
	</g>
	<g>
		
			<rect x="582.2" y="373.76" transform="matrix(0.7071 -0.7071 0.7071 0.7071 -264.4174 638.36)" class="st0" width="112.32" height="529.2"/>
		
			<rect x="2386.87" y="2178.43" transform="matrix(0.7071 -0.7071 0.7071 0.7071 -1011.9376 2443.0334)" class="st0" width="112.32" height="529.2"/>
		
			<rect x="1484.54" y="529.2" transform="matrix(0.7071 -0.7071 0.7071 0.7071 -638.1775 1540.6967)" class="st1" width="112.32" height="2022.99"/>
	</g>
</g>
<g>
	<g>
		
			<rect x="2178.43" y="582.2" transform="matrix(0.7071 -0.7071 0.7071 0.7071 264.1592 1914.4568)" class="st0" width="529.2" height="112.32"/>
		
			<rect x="373.76" y="2386.87" transform="matrix(0.7071 -0.7071 0.7071 0.7071 -1540.5142 1166.9366)" class="st0" width="529.2" height="112.32"/>
		
			<rect x="529.2" y="1484.54" transform="matrix(0.7071 -0.7071 0.7071 0.7071 -638.1775 1540.6967)" class="st1" width="2022.99" height="112.32"/>
	</g>
	<g>
		
			<rect x="2178.43" y="582.2" transform="matrix(0.7071 -0.7071 0.7071 0.7071 264.1592 1914.4568)" class="st0" width="529.2" height="112.32"/>
		
			<rect x="373.76" y="2386.87" transform="matrix(0.7071 -0.7071 0.7071 0.7071 -1540.5142 1166.9366)" class="st0" width="529.2" height="112.32"/>
		
			<rect x="529.2" y="1484.54" transform="matrix(0.7071 -0.7071 0.7071 0.7071 -638.1775 1540.6967)" class="st1" width="2022.99" height="112.32"/>
	</g>
</g>
<g>
	<g>
		
			<rect x="973.78" y="106.67" transform="matrix(0.9164 -0.4002 0.4002 0.9164 -62.5053 443.2682)" class="st0" width="112.32" height="529.2"/>
		
			<rect x="1995.29" y="2445.52" transform="matrix(0.9164 -0.4002 0.4002 0.9164 -913.2337 1047.6388)" class="st0" width="112.32" height="529.2"/>
		
			<rect x="1484.54" y="529.2" transform="matrix(0.9164 -0.4002 0.4002 0.9164 -487.8695 745.4535)" class="st1" width="112.32" height="2022.99"/>
	</g>
	<g>
		
			<rect x="973.78" y="106.67" transform="matrix(0.9164 -0.4002 0.4002 0.9164 -62.5053 443.2682)" class="st0" width="112.32" height="529.2"/>
		
			<rect x="1995.29" y="2445.52" transform="matrix(0.9164 -0.4002 0.4002 0.9164 -913.2337 1047.6388)" class="st0" width="112.32" height="529.2"/>
		
			<rect x="1484.54" y="529.2" transform="matrix(0.9164 -0.4002 0.4002 0.9164 -487.8695 745.4535)" class="st1" width="112.32" height="2022.99"/>
	</g>
</g>
<g>
	<g>
		
			<rect x="2445.52" y="973.78" transform="matrix(0.9164 -0.4002 0.4002 0.9164 -185.6843 1170.8177)" class="st0" width="529.2" height="112.32"/>
		
			<rect x="106.67" y="1995.29" transform="matrix(0.9164 -0.4002 0.4002 0.9164 -790.0547 320.0893)" class="st0" width="529.2" height="112.32"/>
		
			<rect x="529.2" y="1484.54" transform="matrix(0.9164 -0.4002 0.4002 0.9164 -487.8695 745.4535)" class="st1" width="2022.99" height="112.32"/>
	</g>
	<g>
		
			<rect x="2445.52" y="973.78" transform="matrix(0.9164 -0.4002 0.4002 0.9164 -185.6843 1170.8177)" class="st0" width="529.2" height="112.32"/>
		
			<rect x="106.67" y="1995.29" transform="matrix(0.9164 -0.4002 0.4002 0.9164 -790.0547 320.0893)" class="st0" width="529.2" height="112.32"/>
		
			<rect x="529.2" y="1484.54" transform="matrix(0.9164 -0.4002 0.4002 0.9164 -487.8695 745.4535)" class="st1" width="2022.99" height="112.32"/>
	</g>
</g>
<g>
	<g>
		
			<rect x="1741.85" y="296.47" transform="matrix(0.365 -0.931 0.931 0.365 945.8303 2091.96)" class="st0" width="529.2" height="112.32"/>
		
			<rect x="810.35" y="2672.6" transform="matrix(0.365 -0.931 0.931 0.365 -1857.9065 2733.6157)" class="st0" width="529.2" height="112.32"/>
		
			<rect x="529.2" y="1484.54" transform="matrix(0.365 -0.931 0.931 0.365 -456.0381 2412.7878)" class="st1" width="2022.99" height="112.32"/>
	</g>
	<g>
		
			<rect x="1741.85" y="296.47" transform="matrix(0.365 -0.931 0.931 0.365 945.8303 2091.96)" class="st0" width="529.2" height="112.32"/>
		
			<rect x="810.35" y="2672.6" transform="matrix(0.365 -0.931 0.931 0.365 -1857.9065 2733.6157)" class="st0" width="529.2" height="112.32"/>
		
			<rect x="529.2" y="1484.54" transform="matrix(0.365 -0.931 0.931 0.365 -456.0381 2412.7878)" class="st1" width="2022.99" height="112.32"/>
	</g>
</g>
<g>
	<g>
		
			<rect x="2672.6" y="1741.85" transform="matrix(0.365 -0.931 0.931 0.365 -135.2102 3814.6562)" class="st0" width="112.32" height="529.2"/>
		
			<rect x="296.47" y="810.35" transform="matrix(0.365 -0.931 0.931 0.365 -776.866 1010.9194)" class="st0" width="112.32" height="529.2"/>
		
			<rect x="1484.54" y="529.2" transform="matrix(0.365 -0.931 0.931 0.365 -456.0381 2412.7878)" class="st1" width="112.32" height="2022.99"/>
	</g>
	<g>
		
			<rect x="2672.6" y="1741.85" transform="matrix(0.365 -0.931 0.931 0.365 -135.2102 3814.6562)" class="st0" width="112.32" height="529.2"/>
		
			<rect x="296.47" y="810.35" transform="matrix(0.365 -0.931 0.931 0.365 -776.866 1010.9194)" class="st0" width="112.32" height="529.2"/>
		
			<rect x="1484.54" y="529.2" transform="matrix(0.365 -0.931 0.931 0.365 -456.0381 2412.7878)" class="st1" width="112.32" height="2022.99"/>
	</g>
</g>
</svg>
